<svg width="189" height="28" viewBox="0 0 189 28" fill="none" xmlns="http://www.w3.org/2000/svg">
<path d="M54.32 23.13L56.816 19.386L59.288 23.13C59.504 23.442 59.84 23.61 60.224 23.61H62.432V6.80998H59.624V19.41L58.208 17.274L57.728 16.578C57.296 15.906 56.312 15.906 55.88 16.578L55.4 17.274L53.984 19.41V6.80998H51.2V23.61H53.384C53.768 23.61 54.104 23.442 54.32 23.13ZM72.3526 6.85799C72.2806 6.83398 72.1846 6.80998 72.1126 6.80998H65.9446C65.3206 6.80998 64.8406 7.31398 64.8406 7.93798V23.61H67.6246V19.53C68.6566 19.314 69.5926 18.906 70.4326 18.354V23.61H73.2406V7.93798C73.2406 7.40999 72.8566 6.97798 72.3526 6.85799ZM67.6246 16.626V9.61799H70.4326V14.418C69.7846 15.45 68.8006 16.242 67.6246 16.626ZM83.1573 6.85799C83.0853 6.83398 82.9893 6.80998 82.9173 6.80998H75.6453V23.634H78.4293V19.53C79.2933 19.362 80.0853 19.026 80.8293 18.618L81.2373 19.386V23.634H84.0453V19.386L82.7733 17.01C83.2773 16.434 83.7093 15.81 84.0453 15.138V7.93798C84.0213 7.40999 83.6613 6.97798 83.1573 6.85799ZM78.4293 9.61799H81.2373V14.418C80.5893 15.45 79.6053 16.242 78.4293 16.626V9.61799ZM93.962 6.85799C93.89 6.83398 93.794 6.80998 93.722 6.80998H87.554C86.93 6.80998 86.45 7.31398 86.45 7.93798V23.61H89.234V19.53C90.266 19.314 91.202 18.906 92.042 18.354C93.242 17.562 94.202 16.434 94.826 15.138V7.93798C94.826 7.40999 94.466 6.97798 93.962 6.85799ZM89.234 16.626V9.61799H92.042V14.418C91.394 15.45 90.41 16.242 89.234 16.626ZM100.039 6.80998H97.2547V22.506C97.2547 23.13 97.7347 23.61 98.3587 23.61H105.631V20.826H100.039V6.80998ZM115.571 6.85799C115.499 6.83398 115.403 6.80998 115.331 6.80998H109.163C108.539 6.80998 108.059 7.31398 108.059 7.93798V23.61H110.843V19.53C111.875 19.314 112.811 18.906 113.651 18.354V23.61H116.459V7.93798C116.459 7.40999 116.075 6.97798 115.571 6.85799ZM110.843 16.626V9.61799H113.651V14.418C113.003 15.45 112.019 16.242 110.843 16.626ZM126.064 6.80998L123.256 12.426L120.448 6.80998H117.664L121.864 15.21V23.61H124.648V15.21L128.848 6.80998H126.064ZM130.067 20.826V23.61H131.747C132.347 23.61 132.851 23.13 132.851 22.506V20.826H130.067ZM140.862 20.826H138.054V9.61799H140.862V12.474C142.062 12.042 143.07 11.154 143.646 10.026V7.93798C143.646 7.31398 143.166 6.80998 142.542 6.80998H135.27V23.61H142.542C143.166 23.61 143.646 23.13 143.646 22.506V15.402H140.862V20.826ZM148.859 6.80998H146.075V22.506C146.075 23.13 146.555 23.61 147.179 23.61H154.451V20.826H148.859V6.80998ZM156.88 7.93798V22.506C156.88 23.13 157.36 23.61 157.984 23.61H164.152C164.776 23.61 165.256 23.13 165.256 22.506V7.93798C165.256 7.31398 164.776 6.80998 164.152 6.80998H157.984C157.36 6.80998 156.88 7.31398 156.88 7.93798ZM162.472 20.826H159.664V9.61799H162.472V20.826ZM173.276 6.80998V20.826H170.468V6.80998H167.684V22.506C167.684 23.13 168.164 23.61 168.788 23.61H174.956C175.58 23.61 176.06 23.13 176.06 22.506V6.80998H173.276ZM178.489 6.80998V23.61H185.761C186.385 23.61 186.865 23.13 186.865 22.506V7.93798C186.865 7.31398 186.385 6.80998 185.761 6.80998H178.489ZM184.081 20.826H181.273V9.61799H184.081V20.826Z" fill="#57D6FF"/>
<path d="M19.2632 16.0881H13.7406C13.6799 16.0881 13.6248 16.1265 13.6028 16.1814L8.41082 27.2544C8.37224 27.3531 8.44389 27.4573 8.54861 27.4518H24.4441C24.5488 27.4518 24.615 27.3421 24.5819 27.2489L19.39 16.1759C19.3734 16.1265 19.3183 16.0881 19.2632 16.0881Z" fill="#57D6FF"/>
<path d="M8.48244 24.2983L12.9854 14.7664C12.9964 14.739 13.002 14.7061 12.9909 14.6732L6.47621 0.770211C6.43212 0.605679 6.18961 0.627617 6.18961 0.803118L8.20686 24.2434C8.19583 24.397 8.42181 24.4464 8.48244 24.2983Z" fill="#57D6FF"/>
<path d="M0.407926 9.26549L4.65738 0.0626718C4.74556 -0.057985 4.92745 0.00782761 4.92194 0.155906L7.15965 25.6255C7.15414 25.779 6.93919 25.8229 6.87856 25.6803L0.159903 11.3221C-0.121189 10.6421 -0.0274918 9.86329 0.407926 9.26549Z" fill="#57D6FF"/>
<path d="M24.7969 24.2434L26.8141 0.803081C26.8141 0.633064 26.5716 0.605642 26.5275 0.770174L20.0128 14.6731C20.0018 14.706 20.0073 14.7389 20.0183 14.7664L24.5213 24.2982C24.5819 24.4463 24.8079 24.397 24.7969 24.2434Z" fill="#57D6FF"/>
<path d="M32.8383 11.3222L26.1197 25.6803C26.059 25.8284 25.8441 25.7845 25.8386 25.6255L28.0763 0.155922C28.0708 0.00784303 28.2527 -0.0524852 28.3408 0.0626872L32.5958 9.26551C33.0312 9.86331 33.1194 10.6421 32.8383 11.3222Z" fill="#57D6FF"/>
</svg>
